<svg width="150" height="150" viewBox="0 0 150 150" fill="none" xmlns="http://www.w3.org/2000/svg">
<mask id="mask0_83_74" style="mask-type:luminance" maskUnits="userSpaceOnUse" x="0" y="0" width="150" height="150">
<path d="M150 75C150 33.5786 116.421 0 75 0C33.5786 0 0 33.5786 0 75C0 116.421 33.5786 150 75 150C116.421 150 150 116.421 150 75Z" fill="white"/>
</mask>
<g mask="url(#mask0_83_74)">
<path d="M150 0H0V150H150V0Z" fill="#D69457"/>
<path d="M58.5748 29.2695C17.2102 31.4373 -14.565 66.7273 -12.3972 108.092C-10.2294 149.456 25.0606 181.232 66.4252 179.064C107.79 176.896 139.565 141.606 137.397 100.241C135.229 58.8769 99.9394 27.1016 58.5748 29.2695Z" fill="#586C56"/>
<path d="M42.3298 96.2579C42.8348 100.371 45.4977 104.048 49.7327 106.48C53.9677 108.913 59.4279 109.901 64.912 109.227C70.3962 108.554 75.4551 106.274 78.9759 102.89C82.4967 99.5053 84.1909 95.2931 83.6859 91.18" fill="white"/>
<path d="M42.3664 79.4616C42.086 77.1775 40.4699 75.4965 38.7569 75.7068C37.0439 75.9171 35.8826 77.9392 36.163 80.2232C36.4434 82.5073 38.0595 84.1883 39.7725 83.978C41.4855 83.7677 42.6469 81.7456 42.3664 79.4616Z" fill="white"/>
<path d="M83.7225 74.3837C83.4421 72.0996 81.826 70.4186 80.113 70.6289C78.4 70.8392 77.2386 72.8613 77.5191 75.1453C77.7995 77.4294 79.4156 79.1104 81.1286 78.9001C82.8416 78.6898 84.0029 76.6677 83.7225 74.3837Z" fill="white"/>
</g>
</svg>
